<?xml version="1.0" encoding="UTF-8" standalone="no"?>
<!-- Created with Inkscape (http://www.inkscape.org/) -->

<svg
   xmlns:dc="http://purl.org/dc/elements/1.1/"
   xmlns:cc="http://creativecommons.org/ns#"
   xmlns:rdf="http://www.w3.org/1999/02/22-rdf-syntax-ns#"
   xmlns:svg="http://www.w3.org/2000/svg"
   xmlns="http://www.w3.org/2000/svg"
   xmlns:sodipodi="http://sodipodi.sourceforge.net/DTD/sodipodi-0.dtd"
   xmlns:inkscape="http://www.inkscape.org/namespaces/inkscape"
   width="1366px"
   height="768px"
   viewBox="0 0 1366 768"
   version="1.1"
   id="SVGRoot"
   inkscape:version="0.92.4 (5da689c313, 2019-01-14)"
   sodipodi:docname="Body_Builder.svg">
  <defs
     id="defs867" />
  <sodipodi:namedview
     id="base"
     pagecolor="#ffffff"
     bordercolor="#666666"
     borderopacity="1.0"
     inkscape:pageopacity="0.0"
     inkscape:pageshadow="2"
     inkscape:zoom="0.24748738"
     inkscape:cx="116.72529"
     inkscape:cy="-144.18081"
     inkscape:document-units="px"
     inkscape:current-layer="layer1"
     showgrid="false"
     inkscape:window-width="1366"
     inkscape:window-height="705"
     inkscape:window-x="-8"
     inkscape:window-y="-8"
     inkscape:window-maximized="1" />
  <metadata
     id="metadata870">
    <rdf:RDF>
      <cc:Work
         rdf:about="">
        <dc:format>image/svg+xml</dc:format>
        <dc:type
           rdf:resource="http://purl.org/dc/dcmitype/StillImage" />
        <dc:title />
      </cc:Work>
    </rdf:RDF>
  </metadata>
  <g
     inkscape:label="Layer 1"
     inkscape:groupmode="layer"
     id="layer1">
    <path
       style="fill:#00710b;stroke:#000000;stroke-width:1px;stroke-linecap:butt;stroke-linejoin:miter;stroke-opacity:1;fill-opacity:1"
       d="m 611.42858,145.85714 c -8.48362,14.6915 -2.32964,35.09222 4.28571,50.71429 5.6227,13.27794 25.81856,18.42935 28.42041,32.61204 1.27526,6.95144 -7.34899,19.88796 -7.34899,19.88796 0,0 -17.81625,-6.40614 -27.14285,-7.14286 -11.92699,-0.94213 -35.71429,3.57143 -35.71429,3.57143 -12.5,6.07142 -21.07143,-11.07143 -45,-19.28571 C 506.78571,215.14285 490.71429,222.28571 480,216.57143 l 4.89411,-69.5921 c 0,0 24.22456,-24.47277 23.2589,-36.0504 -1.4794,-17.737193 -44.39314,-17.100581 -61.87673,-13.765768 -12.16722,7.775138 5.67758,33.915468 9.43801,43.693978 0,0 -29.48025,60.48545 -28.57143,92.85715 0.2103,7.49066 2.75767,15.54436 7.80638,21.08193 4.4166,4.84426 11.62795,4.39463 17.73459,8.49964 12.29835,8.26722 20.13445,23.45829 32.78535,32.02031 13.2473,8.96566 43.88832,19.40827 43.88832,19.40827 0,0 4.74053,25.16499 11.65265,35.54096 11.10234,16.66602 32.71665,23.82478 45.46918,39.2647 8.86714,10.73574 16.60441,22.93918 20.83684,36.2045 4.81605,15.09451 4.53082,47.31616 4.53082,47.31616 l -19.82668,50.2451 -8.57143,57.63307 -1.60189,58.81653 9.50979,51.0399 40.34663,4.01086 16.86802,-21.42857 -2.78536,-25.75633 22.03518,-94.21393 12.4536,94.21393 -2.78536,25.75633 16.86802,21.42857 40.34663,-4.01086 9.50979,-51.0399 -1.60189,-58.81653 -8.57143,-57.63307 -19.82668,-50.2451 c 0,0 -0.28523,-32.22165 4.53082,-47.31616 4.23243,-13.26532 11.9697,-25.46876 20.83684,-36.2045 12.75253,-15.43992 36.00314,-21.61783 45.46918,-39.2647 5.64498,-10.52355 4.50979,-35.54096 4.50979,-35.54096 0,0 35.69474,-9.61028 51.03118,-19.40827 12.87305,-8.22421 20.487,-23.75309 32.78532,-32.02031 6.1067,-4.10501 13.318,-3.65538 17.7346,-8.49964 5.0487,-5.53757 7.5961,-13.59127 7.8064,-21.08193 0.9088,-32.3717 -28.5714,-92.85715 -28.5714,-92.85715 3.7604,-9.77851 21.6052,-35.91884 9.438,-43.69398 -17.48361,-3.33482 -60.39735,-3.97143 -61.87675,13.76577 -0.96566,11.57763 23.2589,36.0504 23.2589,36.0504 l 4.89411,69.5921 c -10.71429,5.71428 -26.78571,-1.42858 -48.92857,9.64286 -23.92857,8.21428 -35.35714,33.92856 -47.85714,27.85714 0,0 -18.59722,-8.39212 -28.57144,-9.28572 -10.53096,-0.94347 -31.42856,4.28572 -31.42856,4.28572 0,0 -3.76544,-13.58679 -1.6347,-19.88796 4.07417,-12.04838 20.24209,-16.77438 25.56326,-28.32632 7.73468,-16.79152 16.2633,-38.91904 7.14286,-55.00001 -10.14554,-17.88841 -36.02404,-24.8832 -56.58702,-24.58159 -19.27022,0.28266 -42.69363,7.89202 -52.33103,24.58159 z"
       id="path1437"
       inkscape:connector-curvature="0"
       sodipodi:nodetypes="aaacaccccsccsasacaaacccccccccccccccccaaacasasccsccccacaaaaa" />
  </g>
</svg>
